HIERARCHY
ROOT Hips
{
	OFFSET 0.000000 0.000000 0.000000 
	CHANNELS 6 Xposition Yposition Zposition Zrotation Yrotation Xrotation
	JOINT LeftUpLeg
	{
		OFFSET 1.363060 -1.794630 0.839290 
		CHANNELS 3 Zrotation Yrotation Xrotation
		JOINT LeftLeg
		{
			OFFSET 2.448110 -6.726130 0.000000 
			CHANNELS 3 Zrotation Yrotation Xrotation
			JOINT LeftFoot
			{
				OFFSET 2.562200 -7.039590 0.000000 
				CHANNELS 3 Zrotation Yrotation Xrotation
				JOINT LeftToeBase
				{
					OFFSET 0.157640 -0.433110 2.322550 
					CHANNELS 3 Zrotation Yrotation Xrotation
					End Site
					{
						OFFSET 0.000000 0.000000 0.000000 
					}
				}
			}
		}
	}
	JOINT RightUpLeg
	{
		OFFSET -1.305520 -1.794630 0.839290 
		CHANNELS 3 Zrotation Yrotation Xrotation
		JOINT RightLeg
		{
			OFFSET -2.542530 -6.985550 0.000000 
			CHANNELS 3 Zrotation Yrotation Xrotation
			JOINT RightFoot
			{
				OFFSET -2.568260 -7.056230 0.000000 
				CHANNELS 3 Zrotation Yrotation Xrotation
				JOINT RightToeBase
				{
					OFFSET -0.164730 -0.452590 2.363150 
					CHANNELS 3 Zrotation Yrotation Xrotation
					End Site
					{
						OFFSET 0.000000 0.000000 0.000000 
					}
				}
			}
		}
	}
	JOINT Spine
	{
		OFFSET 0.028270 2.035590 -0.193380 
		CHANNELS 3 Zrotation Yrotation Xrotation
		JOINT Spine1
		{
			OFFSET 0.056720 2.048850 -0.042750 
			CHANNELS 3 Zrotation Yrotation Xrotation
			JOINT Neck1
			{
				OFFSET -0.054170 1.746240 0.172020 
				CHANNELS 3 Zrotation Yrotation Xrotation
				JOINT Head
				{
					OFFSET 0.104070 1.761360 -0.123970 
					CHANNELS 3 Zrotation Yrotation Xrotation
					End Site
					{
						OFFSET 0.000000 0.000000 0.000000 
					}
				}
			}
			JOINT LeftArm
			{
				OFFSET 3.362410 1.200890 -0.311210 
				CHANNELS 3 Zrotation Yrotation Xrotation
				JOINT LeftForeArm
				{
					OFFSET 4.983000 -0.000000 -0.000000 
					CHANNELS 3 Zrotation Yrotation Xrotation
					JOINT LeftHand
					{
						OFFSET 3.483560 -0.000000 -0.000000 
						CHANNELS 3 Zrotation Yrotation Xrotation
						JOINT LeftHandIndex1
						{
							OFFSET 0.715260 -0.000000 -0.000000 
							CHANNELS 3 Zrotation Yrotation Xrotation
							End Site
							{
								OFFSET 0.000000 0.000000 0.000000 
							}
						}
					}
				}
			}
			JOINT RightArm
			{
				OFFSET -3.136600 1.374050 -0.404650 
				CHANNELS 3 Zrotation Yrotation Xrotation
				JOINT RightForeArm
				{
					OFFSET -5.241900 -0.000000 -0.000000 
					CHANNELS 3 Zrotation Yrotation Xrotation
					JOINT RightHand
					{
						OFFSET -3.444170 -0.000000 -0.000000 
						CHANNELS 3 Zrotation Yrotation Xrotation
						JOINT RightHandIndex1
						{
							OFFSET -0.622530 -0.000000 -0.000000 
							CHANNELS 3 Zrotation Yrotation Xrotation
							End Site
							{
								OFFSET 0.000000 0.000000 0.000000 
							}
						}
					}
				}
			}
		}
	}
}
MOTION
Frames: 10
Frame Time: 0.041667
19.638456 17.588613 -1.344398 138.699888 -87.368313 -146.067772 -19.657403 -17.046056 -4.918851 1.808795 12.992788 36.343045 -2.831156 11.764990 -3.750667 0.335200 3.720600 10.292000 31.123402 10.714276 8.038432 -1.306491 -10.624299 30.368443 1.236246 -15.759776 -31.228677 -1.043000 6.494900 -18.227400 2.386958 -1.169581 1.321305 -5.579764 -1.022065 4.938113 -7.525376 -74.658449 19.175030 178.981300 -46.082000 41.499000 -94.754462 5.779332 17.986065 13.827614 -18.440529 -3.739539 -1.092271 -3.442310 3.408720 -7.125000 0.000000 0.000000 92.191142 -18.103968 36.903013 -20.538573 33.192751 -10.432032 -0.907720 2.567735 -18.121894 7.125000 0.000000 0.000000 
19.691509 17.584327 -1.418650 143.175168 -87.466697 -150.633358 -18.954594 -16.515451 -5.538549 2.000699 13.175021 37.108587 -1.554802 7.722921 -1.629153 0.000400 0.131700 0.361900 31.656040 10.641419 7.958789 -1.291498 -10.653419 30.384026 1.173853 -15.753700 -31.571602 -1.257600 7.109200 -20.039200 2.427494 -1.059646 1.365831 -5.710060 -0.940688 4.965462 -6.846523 -73.910837 18.475260 178.987300 -45.597000 41.269000 -94.885997 5.795404 17.678257 13.699547 -18.206257 -3.645373 -1.066282 -3.436142 4.137292 -7.125000 0.000000 0.000000 92.115623 -17.786107 36.735781 -20.703581 33.319818 -10.526064 -0.911034 2.586866 -18.434567 7.125000 0.000000 0.000000 
19.732747 17.581779 -1.483286 140.155169 -87.172166 -147.833913 -18.991322 -16.370461 -5.856231 2.152917 13.352043 37.874076 0.211195 1.904232 -0.256882 0.239400 -3.148600 -8.692800 31.743741 10.968507 8.281653 -1.292849 -10.653268 30.438380 0.975959 -15.550030 -32.301600 -1.445300 7.599900 -21.505300 2.395553 -0.826563 1.428166 -5.854435 -0.806720 5.009633 -6.714383 -73.770352 18.334728 178.897300 -45.332000 41.238000 -94.878323 5.703527 17.316365 13.501701 -17.853284 -3.510647 -1.037062 -3.359954 4.448119 -7.125000 0.000000 0.000000 92.168502 -17.517944 36.335890 -20.809144 33.395288 -10.582215 -0.921658 2.608597 -18.868116 7.125000 0.000000 0.000000 
19.772826 17.582590 -1.542826 136.560900 -86.770552 -144.401882 -19.112873 -16.799437 -6.130131 2.314398 13.557226 38.600841 1.912692 -4.302472 0.292947 0.495300 -4.512200 -12.522400 31.811120 11.623718 8.692981 -1.295419 -10.653863 30.512537 0.710648 -15.285151 -33.259087 -1.549700 7.857300 -22.281600 2.357617 -0.629429 1.475148 -5.924364 -0.696988 5.009951 -6.391152 -73.416610 18.011906 178.819100 -45.107000 41.150000 -94.897671 5.651274 16.694625 13.371477 -17.630044 -3.429444 -0.890580 -3.363701 3.795716 -7.125000 0.000000 0.000000 92.202096 -17.124867 35.895665 -20.768680 33.303057 -10.520629 -0.896180 2.603606 -19.149153 7.125000 0.000000 0.000000 
19.816033 17.578304 -1.592752 135.863144 -86.396373 -143.742051 -19.056076 -17.042877 -6.507553 2.518607 13.791114 39.361491 2.955607 -8.825457 0.685820 0.946100 -6.194900 -17.350900 31.798521 12.010825 8.811041 -1.287899 -10.645258 30.512119 0.570507 -15.159083 -33.775997 -1.692000 8.192800 -23.301100 2.354221 -0.525750 1.495756 -5.950713 -0.631042 4.990281 -5.840152 -72.647028 17.439117 178.839600 -44.747000 40.943000 -95.044700 5.712654 15.923197 13.316593 -17.532563 -3.377982 -0.621153 -3.588920 2.246668 -7.125000 0.000000 0.000000 92.086845 -16.693241 35.562507 -20.745047 33.228296 -10.467278 -0.840341 2.576404 -19.183371 7.125000 0.000000 0.000000 
19.843602 17.572860 -1.629240 140.695934 -85.765011 -148.591348 -18.863966 -16.299171 -6.945362 2.788519 14.032657 40.297039 3.585034 -12.280204 1.224598 2.210200 -9.290900 -26.709600 31.663677 12.049857 8.790218 -1.281446 -10.609359 30.420763 0.452365 -14.673016 -33.640549 -1.879700 8.610900 -24.585500 2.365438 -0.286985 1.514537 -6.087672 -0.476896 5.006304 -5.353869 -71.873613 16.907665 178.749900 -44.333000 40.821000 -95.220136 5.907238 15.097557 13.231848 -17.380852 -3.276663 -0.344332 -3.935144 0.739108 -7.125000 0.000000 0.000000 91.885571 -16.335270 35.230941 -20.805610 33.258392 -10.479724 -0.814561 2.564843 -19.150205 7.125000 0.000000 0.000000 
19.884261 17.585949 -1.667235 145.191710 -85.679607 -153.037031 -18.020741 -16.514946 -7.507703 2.995994 14.266687 41.156316 3.774124 -14.178156 2.997936 2.250200 -9.368900 -26.956200 31.977963 12.065837 8.785425 -1.231128 -10.542218 30.184222 0.298086 -14.283967 -33.846721 -2.025000 8.918000 -25.539200 2.419026 -0.224182 1.472207 -6.209438 -0.415602 4.749970 -4.775016 -71.188062 16.304512 178.412700 -43.853000 40.801000 -95.371154 6.144545 14.145234 13.089809 -17.183055 -3.221068 -0.244483 -3.777719 -0.425232 -7.125000 0.000000 0.000000 91.753160 -16.071804 34.725667 -20.978466 33.395332 -10.577392 -0.830865 2.566819 -19.248185 7.125000 0.000000 0.000000 
19.910788 17.591509 -1.698163 152.240370 -85.242961 -160.061668 -17.012897 -16.081282 -7.991554 3.278247 14.488489 42.048283 3.938254 -15.206236 2.895994 2.582100 -9.985700 -28.930500 32.425773 12.329215 8.988615 -1.158259 -10.431927 29.830564 0.191513 -14.011953 -33.983037 -2.263900 9.395300 -27.039900 2.476126 0.002116 1.460676 -6.347072 -0.271467 4.630194 -4.341365 -70.693852 15.861463 178.018100 -43.457000 40.868000 -95.483854 6.341505 13.259248 12.936705 -16.933975 -3.110513 -0.121752 -3.824896 -1.302660 -7.125000 0.000000 0.000000 91.591187 -15.879611 34.123438 -21.233821 33.646131 -10.756876 -0.856041 2.557764 -19.194053 7.125000 0.000000 0.000000 
19.925383 17.600776 -1.724574 153.894643 -84.583621 -161.639386 -16.451694 -15.746299 -8.385831 3.516078 14.684632 42.809843 4.057406 -16.084778 2.800401 3.031600 -10.746100 -31.428200 32.425546 12.788454 9.324247 -1.069884 -10.259343 29.354149 0.037164 -13.684814 -34.270192 -2.438900 9.726000 -28.094000 2.479143 0.205867 1.472572 -6.472859 -0.138776 4.715385 -4.504977 -70.753079 15.972711 177.813100 -43.619000 41.074000 -95.499764 6.527079 12.601764 12.818627 -16.765424 -3.025342 -0.014872 -3.900503 -1.994548 -7.125000 0.000000 0.000000 91.491234 -15.504649 33.397128 -21.453314 33.844885 -10.898040 -0.884351 2.566853 -18.815539 7.125000 0.000000 0.000000 
19.947624 17.617109 -1.753649 152.876171 -84.146351 -160.623421 -16.021131 -16.078526 -8.652585 3.669750 14.845284 43.395723 4.123182 -17.239204 3.578289 3.120100 -10.886900 -31.899500 32.407607 13.292003 9.764525 -0.987064 -10.095115 28.934721 -0.081963 -13.665101 -34.820277 -2.524900 9.883000 -28.598600 2.471602 0.258065 1.490120 -6.492481 -0.092304 4.766670 -4.934422 -71.030951 16.320008 177.754500 -44.159000 41.314000 -95.467521 6.791263 12.166336 12.757620 -16.737386 -3.014702 0.075699 -3.875591 -2.416100 -7.125000 0.000000 0.000000 91.532563 -14.946810 32.670282 -21.603498 33.921952 -10.960853 -0.927896 2.612623 -18.794402 7.125000 0.000000 0.000000 
